<svg width="733" height="733" viewBox="0 0 733 733" fill="none" xmlns="http://www.w3.org/2000/svg">
<circle cx="366.5" cy="366.5" r="366.5" fill="#EDC3C4"/>
<path d="M366.498 105.762C432.126 105.762 485.582 158.006 487.789 223.29C535.133 238.139 569.611 283.326 573.439 336.377L581.412 385.134C586.09 415.62 589.842 440.078 591.133 459.92C592.456 480.246 591.432 498.318 584.803 515.312C574.8 540.95 556.425 562.431 532.682 576.247C516.943 585.404 499.293 589.166 479.064 590.945C459.315 592.681 434.642 592.681 403.893 592.681H366.502L366.499 592.683L366.496 592.681H329.106C298.356 592.681 273.684 592.681 253.937 590.945C233.706 589.166 216.054 585.404 200.317 576.247C176.573 562.431 158.199 540.95 148.196 515.312C141.566 498.318 140.544 480.246 141.866 459.92C143.157 440.08 146.909 415.62 151.585 385.137L159.443 338.129C162.629 284.323 197.344 238.304 245.207 223.291C247.414 158.006 300.874 105.762 366.498 105.762ZM453.952 259.746C428.337 259.746 404.85 271.946 383.151 301.328C379.241 306.622 373.064 309.744 366.499 309.744C359.934 309.744 353.756 306.622 349.847 301.328C328.147 271.946 304.66 259.746 279.046 259.746C237.468 259.746 200.664 296.899 200.663 346.224C200.663 357.648 201.308 367.69 202.913 376.95C205.603 392.463 210.99 405.785 220.567 419.749C236.843 443.479 265.933 470.121 318.647 509.775L366.499 545.851L414.351 509.775C467.066 470.121 496.156 443.479 512.433 419.749C527.727 397.449 532.335 376.783 532.335 346.224C532.335 296.899 495.529 259.746 453.952 259.746ZM191.433 450.308C190.946 454.861 190.568 459.104 190.309 463.092C189.188 480.309 190.514 490.16 193.404 497.566C199.405 512.95 210.429 525.839 224.676 534.129C231.534 538.119 241.04 540.931 258.177 542.438C268.361 543.335 280.32 543.71 294.948 543.87L293.767 543.064C245.039 506.407 212.29 477.933 191.433 450.308ZM544.1 446.869C523.397 475.582 489.981 504.889 439.227 543.07L438.053 543.87C452.68 543.71 464.638 543.335 474.821 542.438C491.957 540.931 501.464 538.119 508.321 534.129C522.57 525.839 533.592 512.951 539.595 497.566C542.486 490.16 543.811 480.309 542.69 463.092C542.332 457.601 543.072 452.405 544.1 446.869ZM366.498 154.453C329.118 154.453 298.315 182.706 294.157 219.083C321.584 222.597 345.735 235.735 366.499 256.9C387.263 235.736 411.412 222.597 438.839 219.083C434.682 182.706 403.881 154.453 366.498 154.453Z" fill="white"/>
</svg>
